<?xml version="1.0" standalone="no"?>
<!DOCTYPE svg PUBLIC "-//W3C//DTD SVG 20010904//EN"
 "http://www.w3.org/TR/2001/REC-SVG-20010904/DTD/svg10.dtd">
<svg version="1.0" xmlns="http://www.w3.org/2000/svg"
 width="1636.000000pt" height="1636.000000pt" viewBox="0 0 1636.000000 1636.000000"
 preserveAspectRatio="xMidYMid meet">
<metadata>
Created by potrace 1.14, written by Peter Selinger 2001-2017
</metadata>
<g transform="translate(0.000000,1636.000000) scale(0.100000,-0.100000)"
fill="#000000" stroke="none">
<path d="M4132 13238 l-3441 -3123 0 -4927 c-1 -3278 -4 -4928 -11 -4928 -6 0
-10 -41 -10 -104 l0 -104 1313 -6 c721 -4 3330 -13 5797 -21 2467 -8 4979 -17
5583 -20 l1097 -7 0 1286 0 1286 620 0 620 0 0 105 0 105 -620 0 -620 0 -1
3668 0 3667 -3425 3110 c-1884 1711 -3434 3116 -3444 3123 -16 12 -349 -287
-3458 -3110z m10118 -13016 c0 -8 -3545 -5 -3580 2 -8 2 794 4 1783 5 988 0
1797 -3 1797 -7z"/>
</g>
</svg>
